<svg width="405" height="299" >
    <g fill="none" fillRule="evenodd">
      <path
        d="M395.741 296.282H8.945a6.873 6.873 0 0 1-6.877-6.876V9.103c0-3.8 3.077-6.877 6.877-6.877H395.65c3.8 0 6.876 3.077 6.876 6.877v280.303c.091 3.8-2.986 6.876-6.786 6.876z"
        fill="#B0FFC4"
      />
      <path
        d="M380.089 32.537v264.016M2.883 32.989h399.282"
        stroke="#3D46A7"
        strokeWidth="1.835"
      />
      <path
        d="M394.384 296.915H10.844c-4.795 0-8.776-3.89-8.776-8.776V10.912c0-4.795 3.89-8.776 8.777-8.776h383.539c4.795 0 8.776 3.89 8.776 8.776V288.14c0 4.886-3.981 8.776-8.776 8.776z"
        stroke="#3D46A7"
        strokeWidth="2.447"
      />
      <path
        d="M394.928 294.472H10.574c-3.257 0-5.971-2.714-5.971-5.971V10.551c0-3.258 2.714-5.972 5.971-5.972h384.444c3.257 0 5.972 2.714 5.972 5.971v277.951c-.091 3.348-2.715 5.971-6.062 5.971z"
        stroke="#3D73A7"
        strokeWidth="2.412"
        opacity="0.38"
      />
    </g>
  </svg>